<?xml version="1.0" encoding="UTF-8"?>
<svg width="3436px" height="3436px" viewBox="0 0 3436 3436" version="1.1" xmlns="http://www.w3.org/2000/svg" xmlns:xlink="http://www.w3.org/1999/xlink">
    <title>Camion Vector</title>
    <defs>
        <circle id="path-1" cx="1717.05348" cy="1717.77859" r="1717"></circle>
        <filter x="-1.5%" y="-1.5%" width="102.9%" height="102.9%" filterUnits="objectBoundingBox" id="filter-2">
            <feMorphology radius="34" operator="erode" in="SourceAlpha" result="shadowSpreadInner1"></feMorphology>
            <feGaussianBlur stdDeviation="17.5" in="shadowSpreadInner1" result="shadowBlurInner1"></feGaussianBlur>
            <feOffset dx="31" dy="30" in="shadowBlurInner1" result="shadowOffsetInner1"></feOffset>
            <feComposite in="shadowOffsetInner1" in2="SourceAlpha" operator="arithmetic" k2="-1" k3="1" result="shadowInnerInner1"></feComposite>
            <feColorMatrix values="0 0 0 0 0.118869825   0 0 0 0 0.212869947   0 0 0 0 0.315415534  0 0 0 0.529173951 0" type="matrix" in="shadowInnerInner1"></feColorMatrix>
        </filter>
        <path d="M1967.32815,676.670106 C1965.49008,677.487456 2044.7429,511.1787 2232.27511,532.968547 C2279.61872,538.469523 2345.42745,557.401663 2409.40275,586.300595 C2598.83923,671.872874 2692.54474,754.65581 2839.13486,820.277334 C2850.67483,824.647124 2875.66074,819.740006 2914.0926,805.555979 C2906.37749,813.819197 2890.87143,822.609663 2867.57442,831.927376 C2865.58976,832.525998 3012.22659,905.946524 3112.38989,910.541334 C3112.99772,911.605525 2951.58917,897.750825 2827.99182,842.227135 C2825.84599,841.969718 2643.9807,867.363507 2485.23371,772.016807 C2326.48673,676.670106 2248.44463,618.962927 2117.5721,647.816517 C2034.44054,668.558776 1997.20674,718.996046 2003.18775,719.043348 C2143.00109,730.678418 2639.26738,828.162634 3171.71186,1131.15508 C2821.2223,952.313247 2459.401,829.114122 2086.24797,761.557706 C2086.24815,762.231276 2086.24833,762.899691 2086.24851,763.562952 L2086.24932,766.512829 C2086.2494,766.836727 2086.24949,767.159337 2086.24958,767.480657 L2086.25036,770.33775 C2086.25044,770.651339 2086.25053,770.963639 2086.25061,771.27465 L2086.25111,773.125254 C2086.2512,773.431111 2086.25128,773.735679 2086.25136,774.038958 L2086.25233,777.616454 C2086.25241,777.909424 2086.25249,778.201105 2086.25257,778.491498 L2086.25327,781.070237 C2086.25335,781.352897 2086.25342,781.634269 2086.2535,781.914352 L2086.25417,784.400306 C2086.25425,784.672657 2086.25432,784.94372 2086.25439,785.213494 L2086.25525,788.388922 C2086.25532,788.648387 2086.25539,788.906562 2086.25546,789.163449 L2086.25628,792.184237 C2086.25634,792.430814 2086.25641,792.676103 2086.25648,792.920104 L2086.25725,795.78625 C2086.25731,796.019941 2086.25737,796.252343 2086.25744,796.483457 L2086.25834,799.853508 C2086.2584,800.071735 2086.25846,800.288673 2086.25852,800.504323 L2086.25936,803.642413 C2086.25941,803.845175 2086.25947,804.046649 2086.25952,804.246835 L2086.2603,807.152963 C2086.26035,807.340262 2086.2604,807.526271 2086.26045,807.710993 L2086.26129,810.896797 C2086.26138,811.235311 2086.26147,811.56867 2086.26156,811.896875 C2086.26323,818.198528 2372.0249,843.486888 2699.38552,974.490663 C2296.27348,857.555085 2086.26922,841.086766 2086.27055,846.247809 C2086.27371,858.489654 2086.27677,870.565075 2086.27975,882.474072 C2086.28002,883.567416 2097.66972,885.198821 2118.14903,887.971614 L2123.95792,888.756583 C2200.34812,899.069454 2382.71747,923.658078 2576.25292,987.395389 C2185.20009,902.193841 2086.2856,906.150015 2086.28667,910.541334 C2086.32527,1069.39032 2086.34686,1197.2694 2086.35143,1294.17859 L2086.35159,1362.61565 C2086.34615,1468.57429 2086.31161,1521.57256 2086.24797,1521.61048 C2095.16117,1532.83919 2102.70053,1546.38435 2108.86606,1562.24595 C2110.75126,1567.09588 2332.93651,1514.71211 2612.45973,1539.22489 C2318.69055,1550.48468 2116.50236,1590.41522 2117.5721,1596.81012 C2119.30445,1607.16611 2120.73707,1622.66531 2121.86997,1643.30773 C2122.11241,1647.72535 2370.47119,1574.07423 2894.16142,1577.7281 C2370.81327,1613.0638 2124.90634,1670.34322 2125.05321,1675.53279 C2125.30963,1684.59342 2125.44041,1698.74478 2125.44554,1717.98687 L2125.44554,1720.36849 C2125.44041,1740.02614 2125.30963,1764.77453 2125.05321,1794.61365 L2125.05321,1794.61365 L2125.41909,1794.37185 C2142.90156,1785.52139 2692.21318,1691.06353 2707.7489,1691.06353 C2707.78458,1691.10449 2965.85468,1659.51794 3035.52064,1675.53279 C3007.86189,1678.82543 2974.69743,1682.6676 2941.23354,1686.67598 L2934.53831,1687.47976 L2934.53831,1687.47976 L2927.84435,1688.28729 C2854.25175,1697.18824 2782.56972,1706.64625 2768.23485,1712.57957 C2772.12977,1725.10401 2787.64911,1816.09069 2793.00097,1815.98897 C2846.34129,1803.3074 2982.14176,1782.3916 3008.56653,1782.3916 C3011.34419,1753.76505 3022.94619,1714.45202 3028.04459,1710.27261 C3029.18216,1710.10425 3030.42066,1709.90947 3031.68636,1709.73101 L3032.23026,1709.65566 C3032.68453,1709.5939 3033.14094,1709.535 3033.59611,1709.48092 L3034.14151,1709.41844 C3039.22238,1708.85924 3043.98025,1709.00095 3043.6967,1712.57957 C3040.28972,1734.61975 3031.38088,1772.65516 3046.29331,1802.21622 C3047.17005,1808.38984 3059.19362,1823.92192 3075.06297,1812.69233 C3090.93232,1801.46275 3096.45146,1766.17468 3097.48248,1767.86359 C3098.64797,1769.77275 3102.91868,1798.23503 3122.40377,1802.21622 C3131.29421,1804.03271 3147.78887,1787.10551 3151.15275,1755.64268 C3152.27864,1756.67201 3155.62828,1784.08166 3170.97013,1787.92158 C3175.99602,1788.80602 3201.435,1792.65909 3200.02289,1718.47493 C3194.50035,1674.1976 3150.52268,1659.0574 3141.67446,1654.26748 C3132.82623,1649.47756 3035.47633,1640.85624 2920.009,1643.15476 C2773.63385,1646.06854 2599.55481,1662.97366 2512.92289,1673.52833 L2511.86436,1673.658 L2513.34335,1673.41587 C2594.78877,1660.06375 2753.98018,1634.63912 2903.26756,1623.82834 L2909.65927,1623.37404 C3075.50801,1611.81055 3228.67712,1623.90752 3242.01465,1623.37404 C3245.68742,1623.22714 3255.6733,1313.71453 3258.86742,1313.63696 C3270.59988,1313.352 3271.98189,1623.02418 3271.49104,1624.57399 C3270.49496,1627.74852 3270.56159,1630.84855 3270.61357,1634.02374 L3270.62608,1634.85385 C3270.68172,1639.1526 3270.54054,1643.61154 3267.56458,1648.59712 C3252.30473,1644.95737 3166.15876,1642.07956 3162.74202,1643.15476 C3222.00006,1672.03379 3221.56438,1704.78562 3223.66315,1712.57957 C3234.4773,1752.73893 3201.56462,1799.74957 3200.02289,1802.21622 C3184.14148,1803.95936 3062.92157,1833.9195 3061.91093,1834.83253 C2849.85062,1892.57186 2777.8469,1921.46946 2711.29209,1939.2885 C2735.34749,1894.50047 2741.08403,1863.51598 2741.08403,1831.10379 C2741.08403,1741.3936 2704.17557,1715.77798 2692.05625,1718.47493 C2664.63778,1724.57646 2641.85096,1764.15929 2639.26738,1827.06559 C2637.36667,1873.34507 2639.26738,1936.69665 2672.72427,1952.65383 C2662.48139,1957.24163 2650.74431,1962.26122 2638.81539,1967.23958 L2635.94943,1968.43335 C2634.99332,1968.83084 2634.03666,1969.22784 2633.0801,1969.62408 L2630.21141,1970.81032 C2597.24044,1984.42074 2565.18898,1996.85215 2561.43812,1998.15897 C2598.49684,1934.28692 2599.49447,1887.84276 2599.51955,1852.04491 L2599.52017,1849.86645 C2589.28989,1757.50419 2553.11595,1731.92124 2532.58625,1751.52875 C2481.83286,1800.00231 2487.96196,1858.10408 2485.23371,1859.74531 C2480.79245,1881.7112 2481.02169,2001.01569 2527.03198,2010.29275 C2371.94399,2072.34583 2226.5644,2148.89513 2226.5644,2148.89513 C2320.97501,1939.15973 2231.15919,1806.10775 2206.97711,1813.47318 C2154.19628,1819.61748 2119.45074,1929.53878 2121.10352,2025.5679 C2122.42131,2102.13396 2150.36631,2168.98519 2185.38914,2173.78563 C1999.71585,2247.44044 1724.13413,2494.68483 1724.37736,2491.54347 C1751.67642,2443.50043 1849.9487,2183.91513 1727.99233,1983.13695 C1585.64772,1810.99577 1456.01755,2046.01779 1437.03151,2117.57582 C1368.02886,2360.31864 1440.94047,2548.7009 1548.13572,2594.95284 C1496.3929,2585.33272 1423.81058,2583.18794 1309.09271,2533.22381 C1287.99955,2518.10609 1122.75146,2469.78998 915.439383,2432.00236 C804.108261,2411.70958 667.637571,2397.42446 560.970422,2389.43597 C549.995084,2386.98876 697.558135,2376.7646 686.478546,2374.32396 C662.628186,2369.07016 600.211897,2361.14985 400.709484,2339.80612 C402.234819,2336.90994 566.963837,2328.70408 566.984555,2328.43921 C377.823095,2299.57148 195.814531,2279.67931 171.511361,2274.77101 C1016.50054,2312.14328 1334.23546,2384.46749 1333.96767,2384.4468 C1331.58157,2384.4608 1382.4726,2112.82702 1384.07968,2112.95017 C1115.43041,2062.54786 737.133914,2029.35846 249.190185,2013.38196 C249.190185,2013.38196 262.172599,2006.03683 275.137804,1998.57259 L276.662259,1997.69433 C288.590917,1990.81715 300.072002,1984.07948 300.930995,1983.13695 C364.320669,1972.63019 525.241775,1975.44488 783.694312,1991.581 C789.858004,1968.52473 792.35411,1955.549 791.182628,1952.65383 C726.021222,1924.88368 303.661079,1921.00708 300.930995,1921.35582 C382.964143,1897.97846 550.689111,1894.06186 804.105896,1909.60601 L804.105896,1909.60601 L810.999135,1877.41215 C775.597578,1853.38918 431.189849,1838.403 431.843927,1837.77942 C492.573704,1823.89015 623.968289,1823.89015 826.027681,1837.77942 C833.77269,1809.0768 837.4379,1794.68821 837.023311,1794.61365 C746.950311,1775.61658 555.703622,1762.64347 556.091663,1762.06056 C596.363221,1750.44643 693.132897,1750.44643 846.400691,1762.06056 C847.775678,1756.39224 849.009753,1751.36667 850.102915,1746.98384 L850.384891,1745.85507 C853.869636,1731.92774 855.856017,1724.83487 856.344034,1724.57646 C836.333649,1707.5484 633.110212,1695.5242 632.667947,1694.33127 C657.10381,1689.21839 733.597994,1689.92257 862.150501,1696.44382 L862.150501,1696.44382 L873.960306,1654.26748 C763.293035,1624.52502 584.293775,1615.74865 336.962524,1627.93838 C555.045234,1583.39507 757.320856,1584.50919 943.789392,1631.28073 C943.789392,1631.28073 916.576429,1751.38082 862.150501,1991.581 C862.150501,1991.581 1046.68584,2008.53361 1415.75652,2042.43881 C1460.92815,1950.88537 1523.17482,1885.42365 1602.49655,1846.05364 C1691.03232,1811.08809 1763.21759,1832.32974 1819.05236,1909.77859 C1819.569,1816.23764 1819.83249,1745.70587 1819.84282,1698.18331 L1819.84282,1692.47921 C1819.83249,1646.83495 1819.569,1624.19987 1819.05236,1624.57399 C1795.6485,1624.57399 1773.8184,1582.72908 1779.36552,1585.14426 C1811.24588,1593.97394 1838.19979,1593.97394 1860.22726,1585.14426 C1862.83461,1437.78202 1862.83461,1362.28562 1860.22726,1358.65506 C1828.72086,1330.51953 1796.06921,1330.68054 1762.27229,1359.13809 C1762.27229,1359.13809 1762.0934,1362.55806 1761.7356,1369.39799 L1761.6382,1371.25989 C1760.37003,1395.5035 1757.19958,1456.11251 1752.12686,1553.08693 C1752.12686,1553.08693 1742.87703,1527.50867 1724.37736,1476.35215 L1724.37736,1476.35215 L1639.6049,1476.35215 C1639.6049,1476.35215 1647.9948,1370.71777 1664.7746,1159.44899 C1664.7746,1159.44899 1679.67679,1165.37287 1709.48117,1177.22062 C1709.48117,1177.22062 1704.26386,1255.57888 1693.82925,1412.29539 C1693.82925,1412.29539 1704.19115,1413.80682 1724.91494,1416.82969 C1724.91494,1416.82969 1725.94074,1384.40141 1727.99233,1319.54485 C1751.28193,1294.87887 1786.02674,1286.61788 1832.22677,1294.7619 C1832.07298,1262.57292 1831.99147,1237.49688 1831.98224,1219.53376 L1831.98145,1217.27924 C1831.98132,1216.54061 1831.98132,1215.81486 1831.98145,1215.10199 L1831.98224,1213.00203 C1831.99147,1196.85498 1832.07298,1187.82087 1832.22677,1185.89968 C1664.93022,1085.23089 1370.77905,1041.47129 949.77328,1054.62088 C964.139696,1045.39126 993.911925,1037.62186 1039.08997,1031.31268 L1039.08997,1031.31268 L1064.25112,987.395389 L1124.19367,987.395389 L1135.4407,1020.5145 L1187.25642,1020.5145 L1203.78033,980.614952 L1265.70239,980.614952 L1288.97523,1020.5145 L1333.96767,1020.5145 L1359.97369,987.395389 L1415.75652,987.395389 C1427.80644,1014.27918 1436.24139,1028.91828 1441.06135,1031.31268 C1519.12096,1031.31268 1660.37379,1060.47743 1864.81984,1118.80693 L1864.81984,1118.80693 L1864.81984,991.731366 C1791.56243,972.460789 1744.92747,964.058003 1724.91494,966.523008 C1620.66746,981.601322 1559.96122,1037.71605 1559.96122,1035.70139 C1580.28446,1003.07306 1626.74134,955.616319 1674.04361,930.387077 C1667.82245,922.669099 1392.36127,894.290756 1187.25642,925.152621 C1184.24341,925.433467 1175.21564,930.993464 1166.36406,937.046456 L1165.39943,937.708508 C1158.49552,942.463931 1151.83691,947.414311 1148.38213,950.272446 C1111.2475,949.383645 1046.69151,959.933122 1047.01403,957.613049 C1047.42569,954.651716 1099.50071,941.438785 1130.93221,941.557724 C1153.197,923.093671 1181.59155,906.578836 1182.85675,905.946524 C1462.78118,871.463271 1726.75772,905.17485 1731.59003,905.946524 C1736.67039,906.75781 1744.36297,940.946417 1745.29826,941.557724 C1763.21047,944.624096 1803.051,953.891945 1864.81984,969.361272 L1864.81984,969.361272 L1864.81984,935.79568 L1893.24572,920.100666 C1893.45153,902.581702 1893.5565,889.310532 1893.56062,880.287156 L1893.56062,879.203483 C1893.5565,870.526866 1893.45153,866.098043 1893.24572,865.917013 C1922.30059,854.298354 1948.56185,854.298354 1972.02949,865.917013 L1972.02949,865.917013 L1972.02949,920.100666 L2003.18775,935.79568 L2003.18775,1486.77958 L2047.76454,1486.77958 C2050.3109,1009.91764 2051.5927,766.469595 2051.60996,756.435438 L2051.60943,756.112748 C2027.15718,753.878312 2002.7821,751.861513 1978.54086,750.046485 C1973.67169,749.681913 1938.20064,805.668268 1930.81375,831.927376 C1929.96888,791.957814 1950.41365,748.123839 1949.68739,747.975834 C1578.82868,722.503809 1244.91561,743.218267 1153.71724,752.49493 L1153.10336,752.558 L1156.28001,752.145222 C1260.22088,738.674052 1649.43923,692.478335 1956.52455,712.766171 L1967.32815,713.50998 C1963.74865,712.979921 2046.69763,584.378681 2196.58111,595.982742 C2334.45301,612.401107 2442.71383,698.416208 2506.11023,747.701234 C2573.09574,790.268643 2695.10909,835.449761 2800.03372,831.927376 C2761.59117,803.844516 2372.63243,585.852057 2272.6757,577.173819 C2172.71897,568.495581 2101.86235,546.340846 1967.32815,676.670106 Z M1972.02949,987.395389 C1951.25731,958.117194 1927.48541,958.117194 1900.7138,987.395389 L1900.7138,987.395389 L1880.01669,1952.65383 C1854.78555,1968.59408 1837.70328,1981.56981 1828.7699,1991.581 C1830.70364,2005.00528 1849.0123,2183.49089 1817.85504,2284.01053 C1818.52758,2293.31634 1918.47331,2211.56746 1918.47331,2211.56746 C1918.47331,2211.56746 1942.98536,2117.57582 1967.32815,2019.69141 C1969.28564,2015.86079 1905.22692,2060.97247 1902.63831,2061.54391 C1902.41194,2019.92004 1907.34033,1985.70968 1908.02885,1977.33779 C1902.03381,1975.66653 2026.74964,1884.43796 2028.80652,1884.3191 L2028.80652,1884.3191 L2027.84561,1883.71571 C1996.42248,1863.82354 1993.32992,1845.92839 1993.49161,1846.05364 C2003.47628,1859.33389 2025.37956,1860.63452 2024.89834,1859.74531 C2097.0601,1845.74988 2104.99127,1575.87711 2034.44054,1550.5489 C1960.27586,1535.22869 1957.74117,1768.25065 1955.53385,1767.86359 C1929.12266,1677.33185 1934.6212,1591.09969 1972.02949,1509.16711 C1972.02949,1509.16711 1978.72646,991.42895 1972.02949,987.395389 Z M2114.36821,1868.40542 L2061.33235,1896.41633 L1988.11085,2125.93262 C2020.75982,2126.05542 2045.39728,2126.11928 2062.02321,2126.1242 L2066.01279,2126.1242 C2081.30347,2126.11928 2088.58263,2126.05542 2087.85028,2125.93262 C2070.17166,2010.23532 2079.01097,1924.39292 2114.36821,1868.40542 L2114.36821,1868.40542 Z M2400.24484,1784.62593 C2345.09221,1788.84761 2269.71715,1820.11385 2269.87062,1820.62066 C2290.5377,1849.02123 2301.22572,1904.64605 2301.9347,1987.49513 L2301.9347,1987.49513 L2359.18518,1989.44551 C2359.18518,1989.44551 2401.67595,1784.52314 2400.24484,1784.62593 Z M2043.72636,1875.581 L2043.42055,1875.81903 C2036.95022,1880.8065 2032.07888,1883.63986 2028.80652,1884.3191 L2028.80652,1884.3191 L2029.13243,1884.28964 C2032.13833,1883.92496 2037.10361,1880.87693 2043.7002,1875.60328 L2043.72636,1875.581 Z M2125.02636,1794.641 L2125.05321,1794.61365 C2090.9626,1831.13605 2062.10302,1860.70855 2044.43985,1875.00818 L2043.72636,1875.581 L2044.11992,1875.27641 C2060.58128,1862.42307 2087.03631,1836.10652 2123.485,1796.32674 L2125.02636,1794.641 Z M2511.86436,1673.658 L2509.90068,1673.98063 C2478.21819,1679.18133 2459.17541,1682.38943 2458.38192,1681.89701 C2456.79868,1681.1188 2476.1305,1678.06074 2509.31475,1673.97047 L2511.86436,1673.658 Z M1153.10336,752.558 L1152.73056,752.606926 C1137.8681,754.547359 1129.77967,755.695032 1129.77967,755.695032 C1131.72016,755.064433 1138.86326,754.052416 1150.66898,752.810194 L1153.10336,752.558 Z" id="path-3"></path>
        <filter x="0.0%" y="0.0%" width="100.0%" height="100.0%" filterUnits="objectBoundingBox" id="filter-4">
            <feGaussianBlur stdDeviation="0" in="SourceGraphic"></feGaussianBlur>
        </filter>
        <filter x="-0.6%" y="-0.9%" width="101.2%" height="101.7%" filterUnits="objectBoundingBox" id="filter-5">
            <feGaussianBlur stdDeviation="10.5" in="SourceAlpha" result="shadowBlurInner1"></feGaussianBlur>
            <feOffset dx="11" dy="15" in="shadowBlurInner1" result="shadowOffsetInner1"></feOffset>
            <feComposite in="shadowOffsetInner1" in2="SourceAlpha" operator="arithmetic" k2="-1" k3="1" result="shadowInnerInner1"></feComposite>
            <feColorMatrix values="0 0 0 0 0.159391984   0 0 0 0 0.159391984   0 0 0 0 0.159391984  0 0 0 0.960855551 0" type="matrix" in="shadowInnerInner1"></feColorMatrix>
        </filter>
        <path d="M740.618589,1138.50829 C848.661441,1106.21632 1262.44549,1047.11359 1617.40177,1161.61597 L1597.54416,1406.33998 C1403.61497,1444.96482 1216.79163,1506.90303 1037.07416,1592.15462 C1035.62518,1592.69861 1113.63465,1500.6785 1346.73899,1409.62029 C1351.24056,1405.91181 972.238286,1288.17786 512.557507,1376.603 C512.670839,1376.85988 806.985611,1236.2304 1538.19772,1367.08314 C1538.05165,1368.34993 1539.91658,1360.74335 1543.79253,1344.26339 C1316.19736,1299.12618 1111.60853,1273.07704 930.026019,1266.11596 C927.540278,1265.02042 1209.98545,1230.35604 1551.80507,1306.79447 L1557.4981,1280.97374 C1387.63409,1241.80128 1270.29678,1222.21505 1205.48618,1222.21505 C1204.03176,1223.17837 1366.48136,1202.95245 1557.4981,1249.08599 L1563.76156,1223.94903 C1480.24872,1200.58507 1420.74582,1188.9031 1385.25286,1188.9031 C1386.6884,1188.22311 1428.14512,1176.14573 1568.74438,1200.04738 L1569.88903,1186.16047 C1311.3644,1118.05318 1034.94092,1102.16912 740.618589,1138.50829 Z" id="path-6"></path>
        <filter x="-1.1%" y="-2.4%" width="102.2%" height="104.8%" filterUnits="objectBoundingBox" id="filter-7">
            <feMorphology radius="4" operator="erode" in="SourceAlpha" result="shadowSpreadInner1"></feMorphology>
            <feGaussianBlur stdDeviation="5.5" in="shadowSpreadInner1" result="shadowBlurInner1"></feGaussianBlur>
            <feOffset dx="9" dy="-7" in="shadowBlurInner1" result="shadowOffsetInner1"></feOffset>
            <feComposite in="shadowOffsetInner1" in2="SourceAlpha" operator="arithmetic" k2="-1" k3="1" result="shadowInnerInner1"></feComposite>
            <feColorMatrix values="0 0 0 0 0   0 0 0 0 0   0 0 0 0 0  0 0 0 0.5 0" type="matrix" in="shadowInnerInner1"></feColorMatrix>
        </filter>
        <path d="M2306.35368,1028.19001 C2306.63765,1028.61442 2355.4669,1068.76341 2370.49541,1120.33568 C2373.10887,1122.73917 2754.71415,1129.56096 3150.19191,1277.29067 C3150.75376,1278.63984 2847.77117,1120.33568 2306.35368,1028.19001 Z" id="path-8"></path>
        <filter x="-1.8%" y="-6.0%" width="103.6%" height="112.0%" filterUnits="objectBoundingBox" id="filter-9">
            <feMorphology radius="6" operator="erode" in="SourceAlpha" result="shadowSpreadInner1"></feMorphology>
            <feGaussianBlur stdDeviation="3" in="shadowSpreadInner1" result="shadowBlurInner1"></feGaussianBlur>
            <feOffset dx="18" dy="10" in="shadowBlurInner1" result="shadowOffsetInner1"></feOffset>
            <feComposite in="shadowOffsetInner1" in2="SourceAlpha" operator="arithmetic" k2="-1" k3="1" result="shadowInnerInner1"></feComposite>
            <feColorMatrix values="0 0 0 0 0   0 0 0 0 0   0 0 0 0 0  0 0 0 0.5 0" type="matrix" in="shadowInnerInner1"></feColorMatrix>
        </filter>
        <path d="M2235.18959,1180.79817 C2235.8062,1181.30746 2256.85237,1189.35371 2288.63829,1233.32647 C2291.1892,1233.19691 2571.31631,1169.45084 2977.99293,1267.43547 C2977.55512,1268.73103 2651.27923,1146.4256 2235.18959,1180.79817 Z" id="path-10"></path>
        <filter x="-2.8%" y="-22.6%" width="105.7%" height="145.3%" filterUnits="objectBoundingBox" id="filter-11">
            <feGaussianBlur stdDeviation="9" in="SourceAlpha" result="shadowBlurInner1"></feGaussianBlur>
            <feOffset dx="24" dy="9" in="shadowBlurInner1" result="shadowOffsetInner1"></feOffset>
            <feComposite in="shadowOffsetInner1" in2="SourceAlpha" operator="arithmetic" k2="-1" k3="1" result="shadowInnerInner1"></feComposite>
            <feColorMatrix values="0 0 0 0 0.516332654   0 0 0 0 0.435055519   0 0 0 0 0.435055519  0 0 0 0.5 0" type="matrix" in="shadowInnerInner1"></feColorMatrix>
        </filter>
        <path d="M2160.1321,1335.20072 C2165.26377,1336.41111 2197.05751,1358.34841 2247.98431,1397.2493 C2384.5029,1302.01507 2578.77075,1260.00716 2830.78785,1271.22555 C2833.26103,1271.48213 2454.11959,1177.84261 2160.1321,1335.20072 Z" id="path-12"></path>
        <filter x="-3.4%" y="-14.7%" width="106.7%" height="129.3%" filterUnits="objectBoundingBox" id="filter-13">
            <feMorphology radius="4" operator="erode" in="SourceAlpha" result="shadowSpreadInner1"></feMorphology>
            <feGaussianBlur stdDeviation="6.5" in="shadowSpreadInner1" result="shadowBlurInner1"></feGaussianBlur>
            <feOffset dx="28" dy="1" in="shadowBlurInner1" result="shadowOffsetInner1"></feOffset>
            <feComposite in="shadowOffsetInner1" in2="SourceAlpha" operator="arithmetic" k2="-1" k3="1" result="shadowInnerInner1"></feComposite>
            <feColorMatrix values="0 0 0 0 0   0 0 0 0 0   0 0 0 0 0  0 0 0 0.5 0" type="matrix" in="shadowInnerInner1"></feColorMatrix>
        </filter>
        <path d="M1634.4719,1725.21258 C1476.76421,1698.97742 1340.48521,1701.12978 1225.63489,1731.66964 C1110.78458,1762.2095 1031.67833,1829.48622 988.316133,1933.49981 C1040.78644,1856.73101 1125.52828,1802.43724 1242.54165,1770.61852 C1359.55503,1738.79979 1490.19844,1723.66447 1634.4719,1725.21258 Z" id="path-14"></path>
        <filter x="-1.4%" y="-4.0%" width="102.8%" height="107.9%" filterUnits="objectBoundingBox" id="filter-15">
            <feMorphology radius="2" operator="erode" in="SourceAlpha" result="shadowSpreadInner1"></feMorphology>
            <feGaussianBlur stdDeviation="4.5" in="shadowSpreadInner1" result="shadowBlurInner1"></feGaussianBlur>
            <feOffset dx="7" dy="7" in="shadowBlurInner1" result="shadowOffsetInner1"></feOffset>
            <feComposite in="shadowOffsetInner1" in2="SourceAlpha" operator="arithmetic" k2="-1" k3="1" result="shadowInnerInner1"></feComposite>
            <feColorMatrix values="0 0 0 0 0   0 0 0 0 0   0 0 0 0 0  0 0 0 0.5 0" type="matrix" in="shadowInnerInner1"></feColorMatrix>
        </filter>
        <path d="M447.472316,2128.18585 C541.020355,2127.20392 695.669975,2143.12025 911.421175,2175.93485 C911.026067,2177.92467 818.247084,2243.36027 818.247084,2243.36027 C666.45061,2224.62897 542.220664,2211.78827 445.557246,2204.83818 C445.865081,2204.33993 446.503438,2178.78915 447.472316,2128.18585 Z" id="path-16"></path>
        <filter x="-2.9%" y="-11.7%" width="105.8%" height="123.4%" filterUnits="objectBoundingBox" id="filter-17">
            <feMorphology radius="1" operator="erode" in="SourceAlpha" result="shadowSpreadInner1"></feMorphology>
            <feGaussianBlur stdDeviation="6.5" in="shadowSpreadInner1" result="shadowBlurInner1"></feGaussianBlur>
            <feOffset dx="13" dy="13" in="shadowBlurInner1" result="shadowOffsetInner1"></feOffset>
            <feComposite in="shadowOffsetInner1" in2="SourceAlpha" operator="arithmetic" k2="-1" k3="1" result="shadowInnerInner1"></feComposite>
            <feColorMatrix values="0 0 0 0 0   0 0 0 0 0   0 0 0 0 0  0 0 0 0.5 0" type="matrix" in="shadowInnerInner1"></feColorMatrix>
        </filter>
        <path d="M400.379248,2128.14305 C401.092901,2129.33312 401.092901,2153.0019 400.379248,2199.14941 C315.530509,2191.27688 256.412743,2186.81096 223.025948,2185.75166 C266.4221,2166.65669 295.669709,2156.68101 310.768776,2155.82463 C283.929365,2145.00444 234.341138,2137.57182 162.004096,2133.52678 C161.011056,2135.2851 340.870352,2111.76076 400.379248,2128.14305 Z" id="path-18"></path>
        <filter x="-7.7%" y="-24.1%" width="115.5%" height="148.2%" filterUnits="objectBoundingBox" id="filter-19">
            <feMorphology radius="3" operator="erode" in="SourceAlpha" result="shadowSpreadInner1"></feMorphology>
            <feGaussianBlur stdDeviation="6" in="shadowSpreadInner1" result="shadowBlurInner1"></feGaussianBlur>
            <feOffset dx="22" dy="6" in="shadowBlurInner1" result="shadowOffsetInner1"></feOffset>
            <feComposite in="shadowOffsetInner1" in2="SourceAlpha" operator="arithmetic" k2="-1" k3="1" result="shadowInnerInner1"></feComposite>
            <feColorMatrix values="0 0 0 0 0   0 0 0 0 0   0 0 0 0 0  0 0 0 0.5 0" type="matrix" in="shadowInnerInner1"></feColorMatrix>
        </filter>
        <path d="M2222.11646,1875.3023 C2235.19191,1914.83551 2242.0923,1945.057 2242.81762,1965.96677 C2245.12591,2032.51125 2225.58926,2092.65752 2201.46706,2100.27115 C2169.61775,2106.19511 2152.63507,2086.29996 2150.51902,2040.58571 C2173.05961,2033.57679 2190.04229,2019.13654 2201.46706,1997.26496 C2212.89183,1975.39339 2219.77496,1934.73917 2222.11646,1875.3023 Z" id="path-20"></path>
        <filter x="-13.0%" y="-5.3%" width="126.0%" height="110.6%" filterUnits="objectBoundingBox" id="filter-21">
            <feMorphology radius="5" operator="erode" in="SourceAlpha" result="shadowSpreadInner1"></feMorphology>
            <feGaussianBlur stdDeviation="5" in="shadowSpreadInner1" result="shadowBlurInner1"></feGaussianBlur>
            <feOffset dx="9" dy="1" in="shadowBlurInner1" result="shadowOffsetInner1"></feOffset>
            <feComposite in="shadowOffsetInner1" in2="SourceAlpha" operator="arithmetic" k2="-1" k3="1" result="shadowInnerInner1"></feComposite>
            <feColorMatrix values="0 0 0 0 0   0 0 0 0 0   0 0 0 0 0  0 0 0 0.5 0" type="matrix" in="shadowInnerInner1"></feColorMatrix>
        </filter>
        <path d="M2574.77536,1839.99495 C2576.04239,1847.21007 2578.83478,1871.39123 2574.77536,1902.63276 C2570.71594,1933.87429 2564.48648,1954.69506 2544.97279,1954.80422 C2529.43055,1954.80422 2521.65943,1940.23009 2521.65943,1911.08183 C2532.4077,1906.09575 2541.31206,1899.04772 2548.37253,1889.93773 C2558.96323,1876.27276 2558.81185,1878.18365 2574.77536,1839.99495 Z" id="path-22"></path>
        <filter x="-21.7%" y="-10.5%" width="143.4%" height="120.9%" filterUnits="objectBoundingBox" id="filter-23">
            <feMorphology radius="5" operator="erode" in="SourceAlpha" result="shadowSpreadInner1"></feMorphology>
            <feGaussianBlur stdDeviation="5" in="shadowSpreadInner1" result="shadowBlurInner1"></feGaussianBlur>
            <feOffset dx="9" dy="1" in="shadowBlurInner1" result="shadowOffsetInner1"></feOffset>
            <feComposite in="shadowOffsetInner1" in2="SourceAlpha" operator="arithmetic" k2="-1" k3="1" result="shadowInnerInner1"></feComposite>
            <feColorMatrix values="0 0 0 0 0   0 0 0 0 0   0 0 0 0 0  0 0 0 0.5 0" type="matrix" in="shadowInnerInner1"></feColorMatrix>
        </filter>
        <path d="M2714.34084,1831.79247 C2709.14683,1848.72001 2697.83403,1863.09854 2680.40243,1874.92808 C2680.76981,1878.95343 2678.87907,1907.87202 2695.84827,1907.87202 C2710.54774,1904.89497 2716.71193,1879.53512 2714.34084,1831.79247 Z" id="path-24"></path>
        <filter x="-34.9%" y="-15.8%" width="169.7%" height="131.5%" filterUnits="objectBoundingBox" id="filter-25">
            <feMorphology radius="5" operator="erode" in="SourceAlpha" result="shadowSpreadInner1"></feMorphology>
            <feGaussianBlur stdDeviation="5" in="shadowSpreadInner1" result="shadowBlurInner1"></feGaussianBlur>
            <feOffset dx="9" dy="1" in="shadowBlurInner1" result="shadowOffsetInner1"></feOffset>
            <feComposite in="shadowOffsetInner1" in2="SourceAlpha" operator="arithmetic" k2="-1" k3="1" result="shadowInnerInner1"></feComposite>
            <feColorMatrix values="0 0 0 0 0   0 0 0 0 0   0 0 0 0 0  0 0 0 0.5 0" type="matrix" in="shadowInnerInner1"></feColorMatrix>
        </filter>
        <polygon id="path-26" points="3239.2751 1665.73415 3267.23432 1665.73415 3267.23432 1738.50551 3239.2751 1738.50551"></polygon>
        <filter x="-44.7%" y="-17.2%" width="189.4%" height="134.4%" filterUnits="objectBoundingBox" id="filter-27">
            <feMorphology radius="3" operator="erode" in="SourceAlpha" result="shadowSpreadInner1"></feMorphology>
            <feGaussianBlur stdDeviation="6" in="shadowSpreadInner1" result="shadowBlurInner1"></feGaussianBlur>
            <feOffset dx="8" dy="9" in="shadowBlurInner1" result="shadowOffsetInner1"></feOffset>
            <feComposite in="shadowOffsetInner1" in2="SourceAlpha" operator="arithmetic" k2="-1" k3="1" result="shadowInnerInner1"></feComposite>
            <feColorMatrix values="0 0 0 0 0   0 0 0 0 0   0 0 0 0 0  0 0 0 0.5 0" type="matrix" in="shadowInnerInner1"></feColorMatrix>
        </filter>
        <path d="M1349.446,1845.01631 C1348.40088,1846.39333 1328.96025,1894.53639 1291.12411,1989.44551 L1024.33799,1963.14304 C1105.97381,1861.92888 1214.34315,1822.55331 1349.446,1845.01631 Z M1314.63929,1862.04893 C1235.68335,1852.08852 1185.02288,1872.01287 1162.65787,1921.82199 L1162.65787,1921.82199 L1285.38831,1928.23041 Z" id="path-28"></path>
        <filter x="-1.4%" y="-3.0%" width="102.8%" height="106.0%" filterUnits="objectBoundingBox" id="filter-29">
            <feGaussianBlur stdDeviation="1.5" in="SourceAlpha" result="shadowBlurInner1"></feGaussianBlur>
            <feOffset dx="6" dy="5" in="shadowBlurInner1" result="shadowOffsetInner1"></feOffset>
            <feComposite in="shadowOffsetInner1" in2="SourceAlpha" operator="arithmetic" k2="-1" k3="1" result="shadowInnerInner1"></feComposite>
            <feColorMatrix values="0 0 0 0 0   0 0 0 0 0   0 0 0 0 0  0 0 0 0.5 0" type="matrix" in="shadowInnerInner1"></feColorMatrix>
        </filter>
        <filter x="-6.2%" y="-2.6%" width="112.2%" height="106.0%" filterUnits="objectBoundingBox" id="filter-30">
            <feOffset dx="0" dy="2" in="SourceAlpha" result="shadowOffsetOuter1"></feOffset>
            <feGaussianBlur stdDeviation="2" in="shadowOffsetOuter1" result="shadowBlurOuter1"></feGaussianBlur>
            <feColorMatrix values="0 0 0 0 0   0 0 0 0 0   0 0 0 0 0  0 0 0 0.5 0" type="matrix" in="shadowBlurOuter1" result="shadowMatrixOuter1"></feColorMatrix>
            <feMerge>
                <feMergeNode in="shadowMatrixOuter1"></feMergeNode>
                <feMergeNode in="SourceGraphic"></feMergeNode>
            </feMerge>
        </filter>
        <path d="M250.454284,321.014565 C246.854823,259.2339 248.004231,33.4660243 137.139319,67.2147524 C26.2744063,100.963481 13.1280555,460.009719 102.037012,520.353625 C26.2744063,490.117396 -4.8427831,400.73204 0.605560759,257.91813 C6.05390462,115.10422 82.8896459,0.337371341 142.058004,0.337371341 C201.226361,0.337371341 274.80736,106.116911 250.454284,321.014565 Z" id="path-31"></path>
        <filter x="-2.7%" y="-1.0%" width="105.5%" height="102.7%" filterUnits="objectBoundingBox" id="filter-32">
            <feOffset dx="0" dy="2" in="SourceAlpha" result="shadowOffsetOuter1"></feOffset>
            <feGaussianBlur stdDeviation="2" in="shadowOffsetOuter1" result="shadowBlurOuter1"></feGaussianBlur>
            <feColorMatrix values="0 0 0 0 0   0 0 0 0 0   0 0 0 0 0  0 0 0 0.5 0" type="matrix" in="shadowBlurOuter1"></feColorMatrix>
        </filter>
        <filter x="-5.5%" y="-2.3%" width="111.0%" height="105.4%" filterUnits="objectBoundingBox" id="filter-33">
            <feGaussianBlur stdDeviation="4.5" in="SourceAlpha" result="shadowBlurInner1"></feGaussianBlur>
            <feOffset dx="11" dy="8" in="shadowBlurInner1" result="shadowOffsetInner1"></feOffset>
            <feComposite in="shadowOffsetInner1" in2="SourceAlpha" operator="arithmetic" k2="-1" k3="1" result="shadowInnerInner1"></feComposite>
            <feColorMatrix values="0 0 0 0 0   0 0 0 0 0   0 0 0 0 0  0 0 0 0.5 0" type="matrix" in="shadowInnerInner1"></feColorMatrix>
        </filter>
        <path d="M159.736012,107.633327 C174.302291,107.245615 183.755691,109.811731 188.096212,115.331676 C188.986003,124.015295 188.421459,129.876598 179.904749,172.276763 C175.916982,170.988483 159.736012,107.633327 159.736012,107.633327 Z" id="path-34"></path>
        <filter x="-24.4%" y="-7.7%" width="148.8%" height="121.6%" filterUnits="objectBoundingBox" id="filter-35">
            <feOffset dx="0" dy="2" in="SourceAlpha" result="shadowOffsetOuter1"></feOffset>
            <feGaussianBlur stdDeviation="2" in="shadowOffsetOuter1" result="shadowBlurOuter1"></feGaussianBlur>
            <feColorMatrix values="0 0 0 0 0   0 0 0 0 0   0 0 0 0 0  0 0 0 0.5 0" type="matrix" in="shadowBlurOuter1"></feColorMatrix>
        </filter>
        <filter x="-48.8%" y="-18.6%" width="197.7%" height="143.3%" filterUnits="objectBoundingBox" id="filter-36">
            <feGaussianBlur stdDeviation="4.5" in="SourceAlpha" result="shadowBlurInner1"></feGaussianBlur>
            <feOffset dx="11" dy="8" in="shadowBlurInner1" result="shadowOffsetInner1"></feOffset>
            <feComposite in="shadowOffsetInner1" in2="SourceAlpha" operator="arithmetic" k2="-1" k3="1" result="shadowInnerInner1"></feComposite>
            <feColorMatrix values="0 0 0 0 0   0 0 0 0 0   0 0 0 0 0  0 0 0 0.5 0" type="matrix" in="shadowInnerInner1"></feColorMatrix>
        </filter>
        <path d="M111.420109,143.163746 C108.85829,143.914203 94.8766616,172.672732 87.9612188,193.117574 C87.9693671,194.162183 129.011424,203.700557 140.652053,205.132209 C140.899761,205.31473 121.89146,147.721078 111.420109,143.163746 Z" id="path-37"></path>
        <filter x="-13.3%" y="-8.1%" width="126.6%" height="122.6%" filterUnits="objectBoundingBox" id="filter-38">
            <feOffset dx="0" dy="2" in="SourceAlpha" result="shadowOffsetOuter1"></feOffset>
            <feGaussianBlur stdDeviation="2" in="shadowOffsetOuter1" result="shadowBlurOuter1"></feGaussianBlur>
            <feColorMatrix values="0 0 0 0 0   0 0 0 0 0   0 0 0 0 0  0 0 0 0.5 0" type="matrix" in="shadowBlurOuter1"></feColorMatrix>
        </filter>
        <filter x="-26.6%" y="-19.4%" width="153.1%" height="145.2%" filterUnits="objectBoundingBox" id="filter-39">
            <feGaussianBlur stdDeviation="4.5" in="SourceAlpha" result="shadowBlurInner1"></feGaussianBlur>
            <feOffset dx="11" dy="8" in="shadowBlurInner1" result="shadowOffsetInner1"></feOffset>
            <feComposite in="shadowOffsetInner1" in2="SourceAlpha" operator="arithmetic" k2="-1" k3="1" result="shadowInnerInner1"></feComposite>
            <feColorMatrix values="0 0 0 0 0   0 0 0 0 0   0 0 0 0 0  0 0 0 0.5 0" type="matrix" in="shadowInnerInner1"></feColorMatrix>
        </filter>
        <path d="M73.5615834,253.72283 C69.7025593,276.44077 68.6256287,300.655005 70.3307915,326.365536 C70.6002279,326.795765 91.2254186,315.548698 132.206364,292.624335 L73.5615834,253.72283 Z" id="path-40"></path>
        <filter x="-11.2%" y="-6.9%" width="122.3%" height="119.3%" filterUnits="objectBoundingBox" id="filter-41">
            <feOffset dx="0" dy="2" in="SourceAlpha" result="shadowOffsetOuter1"></feOffset>
            <feGaussianBlur stdDeviation="2" in="shadowOffsetOuter1" result="shadowBlurOuter1"></feGaussianBlur>
            <feColorMatrix values="0 0 0 0 0   0 0 0 0 0   0 0 0 0 0  0 0 0 0.5 0" type="matrix" in="shadowBlurOuter1"></feColorMatrix>
        </filter>
        <filter x="-22.3%" y="-16.5%" width="144.7%" height="138.5%" filterUnits="objectBoundingBox" id="filter-42">
            <feGaussianBlur stdDeviation="4.5" in="SourceAlpha" result="shadowBlurInner1"></feGaussianBlur>
            <feOffset dx="11" dy="8" in="shadowBlurInner1" result="shadowOffsetInner1"></feOffset>
            <feComposite in="shadowOffsetInner1" in2="SourceAlpha" operator="arithmetic" k2="-1" k3="1" result="shadowInnerInner1"></feComposite>
            <feColorMatrix values="0 0 0 0 0   0 0 0 0 0   0 0 0 0 0  0 0 0 0.5 0" type="matrix" in="shadowInnerInner1"></feColorMatrix>
        </filter>
        <path d="M77.1793542,390.806186 C77.9200968,391.901314 80.1779844,419.425379 96.8053588,444.355848 L133.542681,373.462975 C118.196216,374.092843 99.4084403,379.873914 77.1793542,390.806186 Z" id="path-43"></path>
        <filter x="-12.4%" y="-7.1%" width="124.8%" height="119.7%" filterUnits="objectBoundingBox" id="filter-44">
            <feOffset dx="0" dy="2" in="SourceAlpha" result="shadowOffsetOuter1"></feOffset>
            <feGaussianBlur stdDeviation="2" in="shadowOffsetOuter1" result="shadowBlurOuter1"></feGaussianBlur>
            <feColorMatrix values="0 0 0 0 0   0 0 0 0 0   0 0 0 0 0  0 0 0 0.5 0" type="matrix" in="shadowBlurOuter1"></feColorMatrix>
        </filter>
        <filter x="-24.8%" y="-16.9%" width="149.7%" height="139.5%" filterUnits="objectBoundingBox" id="filter-45">
            <feGaussianBlur stdDeviation="4.5" in="SourceAlpha" result="shadowBlurInner1"></feGaussianBlur>
            <feOffset dx="11" dy="8" in="shadowBlurInner1" result="shadowOffsetInner1"></feOffset>
            <feComposite in="shadowOffsetInner1" in2="SourceAlpha" operator="arithmetic" k2="-1" k3="1" result="shadowInnerInner1"></feComposite>
            <feColorMatrix values="0 0 0 0 0   0 0 0 0 0   0 0 0 0 0  0 0 0 0.5 0" type="matrix" in="shadowInnerInner1"></feColorMatrix>
        </filter>
        <path d="M173.567989,397.094257 C170.89335,399.861648 154.635981,463.595495 152.033748,483.237303 C151.717794,484.014023 179.415332,467.791759 186.219314,458.330692 C185.981251,457.020799 178.149322,397.977991 173.567989,397.094257 Z" id="path-46"></path>
        <filter x="-20.5%" y="-5.8%" width="140.9%" height="116.2%" filterUnits="objectBoundingBox" id="filter-47">
            <feOffset dx="0" dy="2" in="SourceAlpha" result="shadowOffsetOuter1"></feOffset>
            <feGaussianBlur stdDeviation="2" in="shadowOffsetOuter1" result="shadowBlurOuter1"></feGaussianBlur>
            <feColorMatrix values="0 0 0 0 0   0 0 0 0 0   0 0 0 0 0  0 0 0 0.5 0" type="matrix" in="shadowBlurOuter1"></feColorMatrix>
        </filter>
        <filter x="-40.9%" y="-13.9%" width="181.9%" height="132.5%" filterUnits="objectBoundingBox" id="filter-48">
            <feGaussianBlur stdDeviation="4.5" in="SourceAlpha" result="shadowBlurInner1"></feGaussianBlur>
            <feOffset dx="11" dy="8" in="shadowBlurInner1" result="shadowOffsetInner1"></feOffset>
            <feComposite in="shadowOffsetInner1" in2="SourceAlpha" operator="arithmetic" k2="-1" k3="1" result="shadowInnerInner1"></feComposite>
            <feColorMatrix values="0 0 0 0 0   0 0 0 0 0   0 0 0 0 0  0 0 0 0.5 0" type="matrix" in="shadowInnerInner1"></feColorMatrix>
        </filter>
    </defs>
    <g id="Page-1" stroke="none" stroke-width="1" fill="none" fill-rule="evenodd">
        <g id="Camion-Vector" transform="translate(0.946516, 0.221410)">
            <g id="Oval" opacity="0.950603">
                <use fill="#192430" fill-rule="evenodd" xlink:href="#path-1"></use>
                <use fill="black" fill-opacity="1" filter="url(#filter-2)" xlink:href="#path-1"></use>
            </g>
            <g id="Combined-Shape" filter="url(#filter-4)">
                <use fill="#D8D8D8" fill-rule="evenodd" xlink:href="#path-3"></use>
                <use fill="black" fill-opacity="1" filter="url(#filter-5)" xlink:href="#path-3"></use>
            </g>
            <g id="Path-4">
                <use fill="#D8D8D8" fill-rule="evenodd" xlink:href="#path-6"></use>
                <use fill="black" fill-opacity="1" filter="url(#filter-7)" xlink:href="#path-6"></use>
            </g>
            <g id="Path-13">
                <use fill="#922525" fill-rule="evenodd" xlink:href="#path-8"></use>
                <use fill="black" fill-opacity="1" filter="url(#filter-9)" xlink:href="#path-8"></use>
            </g>
            <g id="Path-14">
                <use fill="#000000" fill-rule="evenodd" xlink:href="#path-10"></use>
                <use fill="black" fill-opacity="1" filter="url(#filter-11)" xlink:href="#path-10"></use>
            </g>
            <g id="Path-15">
                <use fill="#DAC738" fill-rule="evenodd" xlink:href="#path-12"></use>
                <use fill="black" fill-opacity="1" filter="url(#filter-13)" xlink:href="#path-12"></use>
            </g>
            <g id="Path-5">
                <use fill="#D8D8D8" fill-rule="evenodd" xlink:href="#path-14"></use>
                <use fill="black" fill-opacity="1" filter="url(#filter-15)" xlink:href="#path-14"></use>
            </g>
            <g id="Path-6">
                <use fill="#D8D8D8" fill-rule="evenodd" xlink:href="#path-16"></use>
                <use fill="black" fill-opacity="1" filter="url(#filter-17)" xlink:href="#path-16"></use>
            </g>
            <g id="Path-7">
                <use fill="#D8D8D8" fill-rule="evenodd" xlink:href="#path-18"></use>
                <use fill="black" fill-opacity="1" filter="url(#filter-19)" xlink:href="#path-18"></use>
            </g>
            <g id="Path-8">
                <use fill="#D8D8D8" fill-rule="evenodd" xlink:href="#path-20"></use>
                <use fill="black" fill-opacity="1" filter="url(#filter-21)" xlink:href="#path-20"></use>
            </g>
            <g id="Path-8-Copy">
                <use fill="#D8D8D8" fill-rule="evenodd" xlink:href="#path-22"></use>
                <use fill="black" fill-opacity="1" filter="url(#filter-23)" xlink:href="#path-22"></use>
            </g>
            <g id="Path-9">
                <use fill="#D8D8D8" fill-rule="evenodd" xlink:href="#path-24"></use>
                <use fill="black" fill-opacity="1" filter="url(#filter-25)" xlink:href="#path-24"></use>
            </g>
            <g id="Path-10">
                <use fill="#D8D8D8" fill-rule="evenodd" xlink:href="#path-26"></use>
                <use fill="black" fill-opacity="1" filter="url(#filter-27)" xlink:href="#path-26"></use>
                <use stroke="#979797" stroke-width="1" xlink:href="#path-26"></use>
            </g>
            <g id="Combined-Shape">
                <use fill="#D8D8D8" fill-rule="evenodd" xlink:href="#path-28"></use>
                <use fill="black" fill-opacity="1" filter="url(#filter-29)" xlink:href="#path-28"></use>
            </g>
            <g id="Rueda" filter="url(#filter-30)" transform="translate(1492.413897, 1983.190012)">
                <g id="Path-16">
                    <use fill="black" fill-opacity="1" filter="url(#filter-32)" xlink:href="#path-31"></use>
                    <use fill="#D8D8D8" fill-rule="evenodd" xlink:href="#path-31"></use>
                    <use fill="black" fill-opacity="1" filter="url(#filter-33)" xlink:href="#path-31"></use>
                </g>
                <g id="Path-17">
                    <use fill="black" fill-opacity="1" filter="url(#filter-35)" xlink:href="#path-34"></use>
                    <use fill="#D8D8D8" fill-rule="evenodd" xlink:href="#path-34"></use>
                    <use fill="black" fill-opacity="1" filter="url(#filter-36)" xlink:href="#path-34"></use>
                </g>
                <g id="Path-18">
                    <use fill="black" fill-opacity="1" filter="url(#filter-38)" xlink:href="#path-37"></use>
                    <use fill="#D8D8D8" fill-rule="evenodd" xlink:href="#path-37"></use>
                    <use fill="black" fill-opacity="1" filter="url(#filter-39)" xlink:href="#path-37"></use>
                </g>
                <g id="Path-19">
                    <use fill="black" fill-opacity="1" filter="url(#filter-41)" xlink:href="#path-40"></use>
                    <use fill="#D8D8D8" fill-rule="evenodd" xlink:href="#path-40"></use>
                    <use fill="black" fill-opacity="1" filter="url(#filter-42)" xlink:href="#path-40"></use>
                </g>
                <g id="Path-20">
                    <use fill="black" fill-opacity="1" filter="url(#filter-44)" xlink:href="#path-43"></use>
                    <use fill="#D8D8D8" fill-rule="evenodd" xlink:href="#path-43"></use>
                    <use fill="black" fill-opacity="1" filter="url(#filter-45)" xlink:href="#path-43"></use>
                </g>
                <g id="Path-21">
                    <use fill="black" fill-opacity="1" filter="url(#filter-47)" xlink:href="#path-46"></use>
                    <use fill="#D8D8D8" fill-rule="evenodd" xlink:href="#path-46"></use>
                    <use fill="black" fill-opacity="1" filter="url(#filter-48)" xlink:href="#path-46"></use>
                </g>
            </g>
        </g>
    </g>
</svg>